HIERARCHY
ROOT Hips
{
	OFFSET -0.001795 -0.223333 0.028219
	CHANNELS 6 Xposition Yposition Zposition Zrotation Yrotation Xrotation 
	JOINT LeftUpLeg
	{
		OFFSET 0.069520 -0.091406 -0.006815
		CHANNELS 3 Zrotation Yrotation Xrotation
		JOINT LeftLeg
		{
			OFFSET 0.034277 -0.375199 -0.004496
			CHANNELS 3 Zrotation Yrotation Xrotation
			JOINT LeftFoot
			{
				OFFSET -0.013596 -0.397961 -0.043693
				CHANNELS 3 Zrotation Yrotation Xrotation
				JOINT LeftToe
				{
					OFFSET 0.026358 -0.055791 0.119288
					CHANNELS 3 Zrotation Yrotation Xrotation
					End Site
					{
						OFFSET 0.000000 0.000000 0.000000
					}
				}
			}
		}
	}
	JOINT RightUpLeg
	{
		OFFSET -0.067670 -0.090522 -0.004320
		CHANNELS 3 Zrotation Yrotation Xrotation
		JOINT RightLeg
		{
			OFFSET -0.038290 -0.382569 -0.008850
			CHANNELS 3 Zrotation Yrotation Xrotation
			JOINT RightFoot
			{
				OFFSET 0.015774 -0.398415 -0.042312
				CHANNELS 3 Zrotation Yrotation Xrotation
				JOINT RightToe
				{
					OFFSET -0.025372 -0.048144 0.123348
					CHANNELS 3 Zrotation Yrotation Xrotation
					End Site
					{
						OFFSET 0.000000 0.000000 0.000000
					}
				}
			}
		}
	}
	JOINT Spine
	{
		OFFSET -0.002533 0.108963 -0.026696
		CHANNELS 3 Zrotation Yrotation Xrotation
		JOINT Spine1
		{
			OFFSET 0.005487 0.135180 0.001092
			CHANNELS 3 Zrotation Yrotation Xrotation
			JOINT Spine2
			{
				OFFSET 0.001457 0.052922 0.025425
				CHANNELS 3 Zrotation Yrotation Xrotation
				JOINT Neck
				{
					OFFSET -0.002778 0.213870 -0.042857
					CHANNELS 3 Zrotation Yrotation Xrotation
					JOINT Head
					{
						OFFSET 0.005152 0.064970 0.051349
						CHANNELS 3 Zrotation Yrotation Xrotation
						End Site
						{
							OFFSET 0.000000 0.000000 0.000000
						}
					}
				}
				JOINT LeftShoulder
				{
					OFFSET 0.078845 0.121749 -0.034090
					CHANNELS 3 Zrotation Yrotation Xrotation
					JOINT LeftArm
					{
						OFFSET 0.090977 0.030469 -0.008868
						CHANNELS 3 Zrotation Yrotation Xrotation
						JOINT LeftForeArm
						{
							OFFSET 0.259612 -0.012772 -0.027456
							CHANNELS 3 Zrotation Yrotation Xrotation
							JOINT LeftHand
							{
								OFFSET 0.249234 0.008986 -0.001171
								CHANNELS 3 Zrotation Yrotation Xrotation
								End Site
								{
									OFFSET 0.000000 0.000000 0.000000
								}
							}
						}
					}
				}
				JOINT RightShoulder
				{
					OFFSET -0.081759 0.118833 -0.038615
					CHANNELS 3 Zrotation Yrotation Xrotation
					JOINT RightArm
					{
						OFFSET -0.096012 0.032551 -0.009143
						CHANNELS 3 Zrotation Yrotation Xrotation
						JOINT RightForeArm
						{
							OFFSET -0.253742 -0.013329 -0.021401
							CHANNELS 3 Zrotation Yrotation Xrotation
							JOINT RightHand
							{
								OFFSET -0.255298 0.007772 -0.005559
								CHANNELS 3 Zrotation Yrotation Xrotation
								End Site
								{
									OFFSET 0.000000 0.000000 0.000000
								}
							}
						}
					}
				}
			}
		}
	}
}
MOTION
Frames: 12
Frame Time: 0.050000
0.000000 0.899777 0.000000 -3.214593 -4.577765 22.793532 12.026211 1.402256 -46.899649 -2.452124 0.380606 25.531015 1.838448 5.444010 4.935684 0.000000 0.000000 0.000000 -2.437493 5.115393 -48.948415 7.686464 -1.219254 28.585137 -4.407858 -12.603859 1.926240 0.000000 0.000000 0.000000 -1.291004 -0.445398 40.800923 -0.559968 0.261186 2.164289 -7.087565 3.892367 4.044827 12.607532 -5.960725 -14.881415 0.000000 0.000000 0.000000 -8.265376 -50.075411 23.309312 -4.202638 -48.239707 -2.060582 8.201717 -3.271820 -0.045484 0.000000 0.000000 0.000000 2.833464 38.290243 17.016181 11.142574 54.732712 1.308887 -15.603334 6.708930 -0.338730 0.000000 0.000000 0.000000 
0.000468 0.890328 0.001069 -3.909164 -5.932179 23.194617 13.284770 2.491236 -49.396532 -2.430343 0.527792 28.526302 1.138028 3.380699 2.949878 0.000000 0.000000 0.000000 -2.788818 5.688038 -51.884912 9.002995 -1.649159 31.971306 -3.931297 -11.862431 2.982927 0.000000 0.000000 0.000000 -1.936867 0.122546 42.537937 1.112205 -0.496823 2.393254 -9.080788 7.499366 1.476426 17.282507 -8.102482 -15.888686 0.000000 0.000000 0.000000 -7.189309 -54.445471 24.590173 -3.443444 -48.216926 -2.473776 5.732043 -2.829607 0.030195 0.000000 0.000000 0.000000 1.003590 37.707920 16.937725 10.196204 58.016568 1.704721 -15.486733 2.992498 0.034347 0.000000 0.000000 0.000000 
0.001844 0.876768 0.002473 -4.110275 -6.163352 22.426083 12.690527 2.505676 -51.494273 0.191400 -0.471941 33.879952 0.916464 1.873520 -0.110838 0.000000 0.000000 0.000000 -2.664840 6.195382 -54.693402 8.913080 -1.729457 38.538788 -4.587979 -13.185193 1.771758 0.000000 0.000000 0.000000 -1.220615 -0.150735 44.653685 1.216939 -0.521153 1.341480 -9.403859 8.527846 2.106069 16.451011 -8.281169 -13.563436 0.000000 0.000000 0.000000 -9.332976 -57.062989 26.937258 -0.301941 -45.978182 -3.540797 3.390405 -2.100012 0.059285 0.000000 0.000000 0.000000 0.294043 38.907822 17.347128 8.158247 56.779631 0.729175 -14.035935 0.505289 0.240705 0.000000 0.000000 0.000000 
0.004026 0.864420 0.004300 -4.241441 -7.048023 22.655925 12.554445 2.899149 -53.549725 1.511987 -1.009586 36.945548 1.180470 1.925704 -1.520954 0.000000 0.000000 0.000000 -3.032496 6.689942 -57.548562 10.163894 -2.340550 42.621047 -4.658523 -13.297241 1.168365 0.000000 0.000000 0.000000 -0.723262 -0.216023 45.264444 1.052220 -0.468856 2.972883 -9.874784 8.591029 0.171287 18.138219 -8.465182 -15.994053 0.000000 0.000000 0.000000 -8.939565 -58.648244 27.808028 -0.874665 -46.435502 -3.320191 4.105705 -1.528627 0.056326 0.000000 0.000000 0.000000 -0.810498 39.729496 17.378821 6.040529 56.949140 -0.121508 -14.191288 0.169210 0.276430 0.000000 0.000000 0.000000 
0.007247 0.851513 0.007111 -3.830105 -7.330923 21.341313 12.544670 3.053826 -54.126428 1.251524 -0.896045 40.646925 2.255402 3.929939 -2.723864 0.000000 0.000000 0.000000 -3.881492 6.659546 -59.434476 10.864482 -2.870378 47.272004 -5.327845 -15.003906 1.636440 0.000000 0.000000 0.000000 -0.007638 -0.496836 46.972275 1.281788 -0.572498 2.488143 -10.482211 8.426671 1.066087 17.418511 -7.943972 -16.694791 0.000000 0.000000 0.000000 -8.025917 -59.799646 27.846392 -0.052775 -44.862833 -3.465417 4.326008 -1.024962 0.051166 0.000000 0.000000 0.000000 -2.831592 40.249091 16.612134 7.050433 57.287963 0.465920 -15.620171 -0.688213 0.408153 0.000000 0.000000 0.000000 
0.012420 0.844490 0.010532 -3.811485 -7.538476 20.151211 12.758520 3.132032 -53.388147 0.814085 -0.632439 42.902706 2.680750 4.169837 -4.952074 0.000000 0.000000 0.000000 -3.716981 6.739593 -59.114492 10.254196 -2.553924 49.765282 -5.067772 -13.809850 -0.514024 0.000000 0.000000 0.000000 0.920524 -0.926783 47.692632 1.364052 -0.632374 3.466946 -11.246776 8.584853 0.149297 19.022985 -8.961218 -16.427536 0.000000 0.000000 0.000000 -9.382468 -61.493874 29.475273 -0.428635 -42.934305 -3.129734 4.792551 -1.162501 0.055749 0.000000 0.000000 0.000000 -1.885913 41.285941 17.482497 9.029004 56.357161 1.366192 -16.635919 -0.580695 0.436959 0.000000 0.000000 0.000000 
0.020430 0.844729 0.014612 -3.401664 -6.988508 18.398313 12.655047 2.680509 -51.129287 -0.084174 -0.231853 42.155115 2.967899 4.630181 -5.629294 0.000000 0.000000 0.000000 -3.963460 6.118938 -56.889101 9.690367 -2.297042 49.790455 -4.947362 -13.140388 -1.320959 0.000000 0.000000 0.000000 1.994053 -1.606856 46.947321 1.509072 -0.717705 3.664598 -11.510591 8.968734 1.074509 19.653767 -9.110304 -17.456526 0.000000 0.000000 0.000000 -10.531101 -61.550918 29.743652 -2.356261 -42.094123 -2.440697 6.246092 -1.280603 0.055514 0.000000 0.000000 0.000000 0.912384 40.604850 18.155085 11.984193 53.848089 2.399421 -16.774743 1.959548 0.138948 0.000000 0.000000 0.000000 
0.032737 0.855452 0.018831 -3.172567 -7.303100 17.588786 12.543008 2.501074 -49.137963 -1.416775 0.476501 40.303530 2.800584 4.554553 -4.675423 0.000000 0.000000 0.000000 -4.672901 5.463265 -53.986611 9.106411 -1.837699 47.792309 -4.061831 -10.398927 -2.224571 0.000000 0.000000 0.000000 3.131534 -2.079602 44.881816 1.676995 -0.789323 3.724550 -12.049525 8.670928 1.316133 21.735092 -9.988939 -18.798549 0.000000 0.000000 0.000000 -10.607128 -59.265634 28.233814 -5.877908 -42.582333 -1.313964 8.362222 -2.698559 0.005171 0.000000 0.000000 0.000000 2.722431 39.022961 17.953633 19.109327 51.765742 5.085378 -17.763260 6.171123 -0.361084 0.000000 0.000000 0.000000 
0.050417 0.874726 0.024296 -2.660661 -7.482389 17.253971 12.235158 2.061307 -45.524258 -2.157375 0.750458 35.696701 2.262614 3.905208 -2.883460 0.000000 0.000000 0.000000 -5.563250 4.612346 -49.869725 7.354675 -0.837416 42.240726 -2.620377 -7.025145 -0.552977 0.000000 0.000000 0.000000 4.119256 -2.437039 42.055965 2.079998 -0.950495 2.770319 -11.571568 10.182601 2.422248 22.811051 -9.894660 -21.115169 0.000000 0.000000 0.000000 -9.834749 -57.508393 26.334333 -12.160574 -43.822757 0.619896 11.067249 -6.351261 -0.236143 0.000000 0.000000 0.000000 3.289803 36.084680 16.778294 26.593674 48.251716 7.409234 -17.695645 10.294300 -0.846463 0.000000 0.000000 0.000000 
0.073777 0.896411 0.031332 -1.714602 -7.349833 16.648552 11.777087 1.397867 -40.431270 -3.120751 0.966281 29.901995 1.510007 3.072980 -0.315382 0.000000 0.000000 0.000000 -7.437221 3.416652 -45.485648 5.795728 -0.241628 35.699568 -1.560253 -5.085589 1.473839 0.000000 0.000000 0.000000 5.174499 -2.775302 38.242119 2.154067 -0.963956 2.048295 -10.271467 9.868157 4.222647 23.471219 -10.055129 -22.442302 0.000000 0.000000 0.000000 -8.133803 -53.656821 23.331913 -19.333164 -45.645236 3.078118 13.808939 -10.809837 -0.763693 0.000000 0.000000 0.000000 3.521449 34.203964 15.633076 32.286493 43.394442 8.016996 -16.581152 15.599247 -1.349294 0.000000 0.000000 0.000000 
0.102870 0.915044 0.040482 -1.187587 -8.424517 16.586452 11.179747 1.031219 -35.941203 -2.766477 0.706995 23.630595 0.613317 1.907125 2.073984 0.000000 0.000000 0.000000 -8.822282 2.765784 -40.859144 3.924564 0.335567 27.507801 -0.351421 -3.546516 4.402775 0.000000 0.000000 0.000000 6.479173 -2.934493 34.057169 1.700606 -0.721762 1.230044 -8.806296 10.304036 5.214907 23.970021 -10.425689 -22.676567 0.000000 0.000000 0.000000 -9.499693 -49.280549 21.492125 -29.253974 -45.341944 6.401399 15.508106 -17.316370 -1.594264 0.000000 0.000000 0.000000 4.117533 31.249729 14.238338 37.364192 38.481258 7.963571 -15.387279 19.761948 -1.583963 0.000000 0.000000 0.000000 
0.137309 0.924522 0.051117 0.079701 -10.317772 15.394596 8.335065 0.153985 -30.915207 -1.578150 0.299513 18.849662 -0.090756 0.595538 2.697365 0.000000 0.000000 0.000000 -11.135142 2.077411 -36.250898 2.646334 0.566672 21.447519 0.695352 -2.653151 7.141784 0.000000 0.000000 0.000000 7.151969 -2.747918 30.484411 0.735471 -0.264925 1.422355 -6.430709 10.432382 6.264781 22.096086 -9.567426 -22.762477 0.000000 0.000000 0.000000 -9.264611 -44.288443 18.856968 -37.848847 -44.998642 9.189788 15.199007 -24.442823 -2.311017 0.000000 0.000000 0.000000 3.533094 29.330872 12.815771 40.902428 33.922351 7.229748 -14.728092 22.508390 -1.704370 0.000000 0.000000 0.000000 
